<?xml version="1.0" encoding="UTF-8" standalone="no"?>
<svg
   width="117.13261"
   height="103.22926"
   viewBox="0 0 109.81174 96.777589"
   version="1.1"
   id="svg35"
   xmlns="http://www.w3.org/2000/svg"
   xmlns:svg="http://www.w3.org/2000/svg">
  <defs
     id="defs35" />
  <path
     d="m 15.800229,37.158801 15.555,5.662 15.786,-5.746 -15.555,-5.662 z m 15.623,-12.783 15.556,5.662 15.785,-5.746 -15.555,-5.662 z"
     fill="#f7f7f4"
     stroke="#cccccc"
     stroke-width="0.355"
     stroke-linejoin="bevel"
     id="path1" />
  <path
     d="m 31.423229,24.375801 15.556,5.662 v 18.282 l -15.556,-5.661 z"
     fill="#efeeea"
     stroke="#cccccc"
     stroke-width="0.355"
     stroke-linejoin="bevel"
     id="path2" />
  <path
     d="m 0.17722943,61.302801 15.55499957,5.663 15.786,-5.746 -15.556,-5.662 z"
     fill="#f7f7f4"
     stroke="#cccccc"
     stroke-width="0.355"
     stroke-linejoin="bevel"
     id="path3" />
  <path
     d="m 0.17722943,61.302801 15.55499957,5.663 v 18.282 l -15.55499957,-5.661 z"
     fill="#efeeea"
     stroke="#cccccc"
     stroke-width="0.355"
     stroke-linejoin="bevel"
     id="path4" />
  <path
     d="m 0.17722943,35.302801 15.55499957,5.663 15.786,-5.746 -15.556,-5.662 z"
     fill="#f7f7f4"
     stroke="#cccccc"
     stroke-width="0.355"
     stroke-linejoin="bevel"
     id="path5" />
  <path
     d="m 15.732229,40.965801 v 18.282 l 15.786,-5.745 v -18.283 z"
     fill="#ffffff"
     stroke="#cccccc"
     stroke-width="0.355"
     stroke-linejoin="bevel"
     id="path6" />
  <path
     d="m 0.17722943,35.302801 15.55499957,5.663 v 18.282 l -15.55499957,-5.661 z"
     fill="#efeeea"
     stroke="#cccccc"
     stroke-width="0.355"
     stroke-linejoin="bevel"
     id="path7" />
  <path
     d="m 15.799229,66.984801 15.556,5.662 v 18.283 l -15.555,-5.662 z"
     fill="#efeeea"
     stroke="#cccccc"
     stroke-width="0.355"
     stroke-linejoin="bevel"
     id="path10" />
  <path
     d="m 15.799229,48.520801 15.556,5.662 15.786,-5.746 -15.555,-5.661 z"
     fill="#f7f7f4"
     stroke="#cccccc"
     stroke-width="0.355"
     stroke-linejoin="bevel"
     id="path11" />
  <path
     d="m 15.799229,48.520801 15.556,5.662 v 18.283 l -15.555,-5.662 z"
     fill="#efeeea"
     stroke="#cccccc"
     stroke-width="0.355"
     stroke-linejoin="bevel"
     id="path12" />
  <path
     d="m 93.849229,61.283801 v 18.283 l 15.785001,-5.745 v -18.283 z"
     fill="#ffffff"
     stroke="#cccccc"
     stroke-width="0.355"
     stroke-linejoin="bevel"
     id="path13" />
  <path
     d="m 78.225229,66.965801 v 18.282 l 15.786,-5.745 v -18.283 z"
     fill="#ffd242"
     stroke="#cccccc"
     stroke-width="0.355"
     stroke-linejoin="bevel"
     id="path14" />
  <path
     d="m 91.150229,71.422801 a 2.617,3.737 35 0 1 -3.032,4.33 2.617,3.737 35 0 1 -3.031,-2.122 2.617,3.737 35 0 1 3.031,-4.33 2.617,3.737 35 0 1 3.032,2.123 z"
     fill="#ffffff"
     id="path15" />
  <path
     d="m 62.602229,72.646801 v 18.283 l 15.786,-5.746 v -18.283 z"
     fill="#ffd242"
     stroke="#cccccc"
     stroke-width="0.355"
     stroke-linejoin="bevel"
     id="path16" />
  <path
     d="m 46.979229,78.327801 v 18.283 l 15.785,-5.746 v -18.282 z"
     fill="#ffffff"
     stroke="#cccccc"
     stroke-width="0.355"
     stroke-linejoin="bevel"
     id="path17" />
  <path
     d="m 31.423229,72.665801 15.556,5.662 v 18.283 l -15.556,-5.662 z"
     fill="#efeeea"
     stroke="#cccccc"
     stroke-width="0.355"
     stroke-linejoin="bevel"
     id="path18" />
  <path
     d="m 93.849229,42.820801 v 18.282 l 15.785001,-5.745 v -18.283 z"
     fill="#ffd242"
     stroke="#cccccc"
     stroke-width="0.355"
     stroke-linejoin="bevel"
     id="path19" />
  <path
     d="m 78.293229,18.694801 15.556,5.662 15.785001,-5.746 -15.555001,-5.662 z"
     fill="#ffc91d"
     stroke="#cccccc"
     stroke-width="0.355"
     stroke-linejoin="bevel"
     id="path20" />
  <path
     d="m 93.849229,24.356801 v 18.282 l 15.785001,-5.745 v -18.283 z m -15.624,24.145 v 18.282 l 15.786,-5.745 v -18.283 z"
     fill="#ffd242"
     stroke="#cccccc"
     stroke-width="0.355"
     stroke-linejoin="bevel"
     id="path21" />
  <path
     d="m 78.225229,30.037801 v 18.282 l 15.786,-5.745 v -18.283 z"
     fill="#3775a9"
     stroke="#cccccc"
     stroke-width="0.355"
     stroke-linejoin="bevel"
     id="path22" />
  <path
     d="m 62.670229,5.9118009 15.555,5.6620001 15.786,-5.7460001 -15.555,-5.661 z"
     fill="#2f6491"
     stroke="#cccccc"
     stroke-width="0.355"
     stroke-linejoin="bevel"
     id="path23" />
  <path
     d="m 78.225229,11.572801 v 18.283 l 15.786,-5.745 V 5.8278009 Z"
     fill="#3775a9"
     stroke="#cccccc"
     stroke-width="0.355"
     stroke-linejoin="bevel"
     id="path24" />
  <path
     d="m 62.602229,54.182801 v 18.283 l 15.786,-5.746 v -18.283 z"
     fill="#ffd242"
     stroke="#cccccc"
     stroke-width="0.355"
     stroke-linejoin="bevel"
     id="path25" />
  <path
     d="m 62.602229,35.718801 v 18.283 l 15.786,-5.746 v -18.283 z m -15.623,24.145 v 18.283 l 15.785,-5.746 v -18.282 z"
     fill="#3775a9"
     stroke="#cccccc"
     stroke-width="0.355"
     stroke-linejoin="bevel"
     id="path26" />
  <path
     d="m 31.423229,54.202801 15.556,5.661 v 18.283 l -15.556,-5.662 z m 0,-18.465 15.556,5.662 15.785,-5.745 -15.555,-5.662 z"
     fill="#2f6491"
     stroke="#cccccc"
     stroke-width="0.355"
     stroke-linejoin="bevel"
     id="path27" />
  <path
     d="m 46.979229,41.399801 v 18.283 l 15.785,-5.746 v -18.282 z"
     fill="#3775a9"
     stroke="#cccccc"
     stroke-width="0.355"
     stroke-linejoin="bevel"
     id="path28" />
  <path
     d="m 31.423229,35.737801 15.556,5.662 v 18.283 l -15.556,-5.662 z m 15.624,-24.145 15.555,5.662 15.786,-5.746 -15.556,-5.6610001 z"
     fill="#2f6491"
     stroke="#cccccc"
     stroke-width="0.355"
     stroke-linejoin="bevel"
     id="path29" />
  <path
     d="m 62.602229,17.254801 v 18.283 l 15.786,-5.746 v -18.283 z"
     fill="#3775a9"
     stroke="#cccccc"
     stroke-width="0.355"
     stroke-linejoin="bevel"
     id="path30" />
  <path
     d="m 47.047229,11.592801 15.555,5.662 v 18.283 l -15.555,-5.662 z"
     fill="#2f6491"
     stroke="#cccccc"
     stroke-width="0.355"
     stroke-linejoin="bevel"
     id="path31" />
  <path
     d="m 71.527229,23.126801 a 2.617,3.737 35 0 1 -3.032,4.33 2.617,3.737 35 0 1 -3.032,-2.123 2.617,3.737 35 0 1 3.032,-4.33 2.617,3.737 35 0 1 3.032,2.123 z"
     fill="#ffffff"
     id="path32" />
</svg>
